<svg width="24" height="24" viewBox="0 0 24 24" xmlns="http://www.w3.org/2000/svg">
  <defs>
    <radialGradient id="ring" cx="50%" cy="50%" r="50%">
      <stop offset="0%" stop-color="#1f2937"/>
      <stop offset="60%" stop-color="#0f172a"/>
      <stop offset="100%" stop-color="#0b1020"/>
    </radialGradient>
    <linearGradient id="stroke" x1="0" y1="0" x2="1" y2="1">
      <stop offset="0%" stop-color="#6366f1"/>
      <stop offset="100%" stop-color="#22d3ee"/>
    </linearGradient>
  </defs>

  <circle cx="12" cy="12" r="10" fill="url(#ring)"/>
  <circle cx="12" cy="12" r="10" fill="none" stroke="url(#stroke)" stroke-width="1.5" opacity="0.9"/>

  <path d="M9 7h3.2c2.2 0 3.8 1.3 3.8 3.1 0 1.2-.6 2.1-1.7 2.6 1.5.4 2.5 1.4 2.5 3 0 2.1-1.7 3.6-4.2 3.6H9V7zm3.1 4.2c1 0 1.7-.6 1.7-1.5s-.7-1.5-1.7-1.5H10.6v3h1.5zm.4 5.3c1.2 0 2-.7 2-1.7s-.8-1.7-2-1.7h-2.3v3.4h2.3z" fill="#e5e7eb"/>
</svg>
